<svg height="16" viewBox="0 0 16 16" width="16" xmlns="http://www.w3.org/2000/svg">
  <path d="m7.585938.0898438c-.355469.1640622-.585938.5195312-.585938.9101562v5.296875l-2.34375-2.046875c-.414062-.363281-1.042969-.324219-1.40625.089844-.363281.417968-.324219 1.046875.09375 1.410156l2.566406 2.25-2.566406 2.25c-.417969.363281-.457031.992188-.09375 1.40625.363281.417969.992188.457031 1.40625.09375l2.34375-2.046875v5.296875c0 .390625.230469.746094.585938.910156.359374.160156.777343.101563 1.070312-.160156l4-3.5c.21875-.1875.34375-.460938.34375-.75s-.125-.5625-.34375-.75l-3.140625-2.75 3.140625-2.75c.21875-.1875.34375-.460938.34375-.75s-.125-.5625-.34375-.75l-4-3.5c-.292969-.2617188-.710938-.3242188-1.070312-.1601562zm1.414062 3.1132812 1.484375 1.296875-1.484375 1.296875zm0 7 1.484375 1.296875-1.484375 1.296875zm0 0" fill="#2e3436"/>
  <path d="M12.197266 6.390625-1.753907 1.5429688-.02539.0273437-.001953.0019531c-.000607.0008362-.003391.0049825-.003907.0058594v.0019531c-.000332.0009369-.001713.0049032-.001953.0058594-.000147.0009684.000055.0048859 0 .0058594.000039.0009713-.000131.0048972 0 .0058593.000226.0009458.001634.0049372.001953.0058594l.001953.0019532c.000509.0008537.003303.0050505.003907.0058593l.001953.0019531 1.773437 1.5683594.064453-.0566406a5.0171371 5.0171371 0 0 0 .267579-1.5859375 5.0171371 5.0171371 0 0 0 -.208985-1.4335937z M3.2578125 6.4472656a4.7145214 4.7145214 0 0 0 -.2695313 1.5410156 4.7145214 4.7145214 0 0 0 .265625 1.5273438l1.6894532-1.4863281.0253906-.0273438.0019531-.0019531c.000607-.0008361.0033902-.0049825.0039063-.0058594v-.0019531c.0003332-.0009369.0017118-.0049032.0019531-.0058594.0001489-.0009684-.0000562-.0048859 0-.0058593-.0000368-.0009714.0001302-.0048973 0-.0058594-.000224-.0009457-.0016349-.0049372-.0019531-.0058594l-.0019532-.0019531c-.0005075-.0008538-.0033034-.0050506-.0039062-.0058594l-.0019531-.0019531z" fill="#2e3436"/>
  <path d="M2.0449219 5.2578125a6.3211079 6.3211079 0 0 0 -.6386719 2.7480469 6.3211079 6.3211079 0 0 0 .5742188 2.6308596l.625-.548828a5.5571909 5.5571909 0 0 1 -.4140626-2.0605472 5.5571909 5.5571909 0 0 1 .4707032-2.2363282z M13.554688 5.2578125l-.625.5488281a5.5571909 5.5571909 0 0 1 .414062 2.0605469 5.5571909 5.5571909 0 0 1 -.470703 2.2363285l.617187.533203a6.3211079 6.3211079 0 0 0 .638672-2.7480471 6.3211079 6.3211079 0 0 0 -.574218-2.6308594z" fill="#2e3436"/>
  <path d="M14.699219 4.2304688l-.556641.4980468a7.1040659 7.1040659 0 0 1 .757813 3.1796875 7.1040659 7.1040659 0 0 1 -.779297 3.2382809l.580078.494141a7.8094678 7.8094678 0 0 0 .945312-3.6835938 7.8094678 7.8094678 0 0 0 -.947265-3.7265624z M0.97265625 4.3007812a7.8094678 7.8094678 0 0 0 -.9453125 3.6835938 7.8094678 7.8094678 0 0 0 .94726563 3.726563l.55664062-.498047a7.1040659 7.1040659 0 0 1 -.7578125-3.1796879 7.1040659 7.1040659 0 0 1 .7792969-3.2382812z" fill="#2e3436"/>
</svg>
