<?xml version="1.0" standalone="no"?>
<svg viewBox="0 0 500 500" width="100%" height="100%" xmlns="http://www.w3.org/2000/svg"><defs><linearGradient id="aurora-green" x1="0%" y1="100%" x2="100%" y2="0%"><stop offset="0%" stop-color="#00FF87"/><stop offset="100%" stop-color="#60EFFF"/></linearGradient><linearGradient id="aurora-cyan" x1="0%" y1="0%" x2="100%" y2="100%"><stop offset="0%" stop-color="#0061FF"/><stop offset="100%" stop-color="#60EFFF"/></linearGradient><linearGradient id="aurora-purple" x1="0%" y1="100%" x2="100%" y2="0%"><stop offset="0%" stop-color="#8E2DE2"/><stop offset="100%" stop-color="#4A00E0"/></linearGradient><radialGradient id="night-sky" cx="50%" cy="0%" r="100%"><stop offset="0%" stop-color="#1A2B4C"/><stop offset="100%" stop-color="#080E17"/></radialGradient><filter id="aurora-glow" x="-20%" y="-20%" width="140%" height="140%"><feGaussianBlur stdDeviation="12" result="blur"/><feComposite in="SourceGraphic" in2="blur" operator="over"/></filter><filter id="aurora-glow-soft" x="-20%" y="-20%" width="140%" height="140%"><feGaussianBlur stdDeviation="25" result="blur"/><feComposite in="SourceGraphic" in2="blur" operator="over"/></filter><clipPath id="logo-clip"><circle cx="250" cy="250" r="230"/></clipPath></defs><circle cx="250" cy="250" r="230" fill="url(#night-sky)"/><g clip-path="url(#logo-clip)"><g opacity="0.45" filter="url(#aurora-glow-soft)"><ellipse cx="120" cy="250" rx="35" ry="280" fill="url(#aurora-green)" transform="rotate(15 120 250)"/><ellipse cx="250" cy="250" rx="50" ry="300" fill="url(#aurora-cyan)" transform="rotate(15 250 250)"/><ellipse cx="380" cy="250" rx="40" ry="260" fill="url(#aurora-purple)" transform="rotate(15 380 250)"/></g><path d="M -50 200 C 180 -50, 350 350, 600 150 L 600 -50 L -50 -50 Z" fill="url(#aurora-green)" opacity="0.85" style="mix-blend-mode: screen;" filter="url(#aurora-glow)"/><path d="M -50 320 C 150 150, 350 500, 600 250 L 600 600 L -50 600 Z" fill="url(#aurora-cyan)" opacity="0.9" style="mix-blend-mode: screen;" filter="url(#aurora-glow)"/><path d="M -50 450 C 150 300, 400 600, 600 380 L 600 600 L -50 600 Z" fill="url(#aurora-purple)" opacity="0.95" style="mix-blend-mode: screen;" filter="url(#aurora-glow)"/><circle cx="340" cy="260" r="60" fill="#FFFFFF" opacity="0.15" filter="url(#aurora-glow)" style="mix-blend-mode: overlay;"/><path d="M 120 90 Q 125 115 145 120 Q 125 125 120 150 Q 115 125 95 120 Q 115 115 120 90 Z" fill="#FFF" opacity="0.9" filter="url(#aurora-glow)"/><path d="M 380 120 Q 383 135 395 138 Q 383 141 380 156 Q 377 141 365 138 Q 377 135 380 120 Z" fill="#00FF87" opacity="0.8" filter="url(#aurora-glow)"/><path d="M 180 380 Q 182 390 190 392 Q 182 394 180 404 Q 178 394 170 392 Q 178 390 180 380 Z" fill="#00C6FF" opacity="0.6"/></g><circle cx="250" cy="250" r="228" fill="none" stroke="rgba(255,255,255,0.15)" stroke-width="4"/></svg>