<?xml version="1.0" encoding="UTF-8"?>
<svg
  xmlns="http://www.w3.org/2000/svg"
  width="16"
  height="16"
  viewBox="0 0 16 16">
  <defs>
    <clipPath id="aurora-shell-disc" clipPathUnits="userSpaceOnUse">
      <circle cx="64" cy="60" r="50" />
    </clipPath>
  </defs>
  <g transform="matrix(0.16,0,0,0.16,-2.24,-1.6)" fill="currentColor">
    <g clip-path="url(#aurora-shell-disc)">
      <g transform="rotate(-18,64,60)">
        <path
          d="M -4,68 C 12,42 31,36 48,55 60,68 72,72 84,59 94,48 106,45 120,51 V 64 C 105,58 95,62 84,73 70,87 56,82 43,69 29,54 12,60 0,83 Z"
          opacity="0.86" />
        <path
          d="M 4,80 C 20,57 40,51 57,68 70,81 82,84 95,70 105,60 116,58 128,64 V 78 C 114,72 105,76 94,88 80,102 65,96 52,83 38,69 22,74 10,94 Z"
          opacity="0.78" />
        <path
          d="M 16,92 C 30,72 48,67 64,82 c 13,12 25,16 38,4 9,-8 18,-10 30,-4 v 14 c -13,-5 -22,-2 -32,8 -15,14 -30,7 -42,-4 -13,-12 -28,-9 -36,6 z"
          opacity="0.72" />
        <path
          d="m 32,102 c 12,-16 28,-19 42,-7 12,10 22,13 34,3 8,-6 16,-7 26,-2 v 16 c -12,-4 -20,-2 -28,4 -15,12 -30,4 -42,-6 -12,-10 -22,-7 -28,4 z"
          opacity="0.74" />
      </g>
      <path
        d="m 16,98 c 10,7 27,12 48,12 21,0 38,-5 48,-12 v 8 c -11,4 -28,6 -48,6 -20,0 -37,-2 -48,-6 z"
        opacity="0.86" />
      <path
        d="m 26,99 c 10,5 23,7 38,7 15,0 28,-2 38,-7 v 3 c -11,5 -24,7 -38,7 -14,0 -27,-2 -38,-7 z"
        opacity="0.18" />
    </g>
    <circle cx="34" cy="31" r="2" />
    <circle cx="88" cy="24" r="1.5" />
    <path d="m 50.878236,32.868679 c 1,6 3,8 9,9 -6,1 -8,3 -9,9 -1,-6 -3,-8 -9,-9 6,-1 8,-3 9,-9 z" />
    <circle
      cx="64"
      cy="60"
      r="49.25"
      fill="none"
      stroke="currentColor"
      stroke-width="1.5"
      opacity="0.55" />
  </g>
</svg>
